<svg width="1800" height="251" viewBox="0 0 1800 251" fill="none" xmlns="http://www.w3.org/2000/svg">
<path d="M81.614 193.077C68.1404 193.077 55.9541 190.803 45.0551 186.255C34.2419 181.707 25.1021 175.056 17.6358 166.304C10.1696 157.551 4.72005 146.824 1.28729 134.124L23.8148 128.332C27.7625 141.461 34.7139 151.93 44.6689 159.739C54.6239 167.548 66.5528 171.366 80.4555 171.195C89.9814 171.023 98.9066 169.221 107.231 165.789C115.641 162.27 122.55 156.821 127.956 149.442C132.934 143.006 136.41 136.269 138.383 129.233C140.357 122.11 141.602 114.816 142.117 107.351H74.9201V85.5974H142.245C141.215 72.9831 138.169 61.8704 133.106 52.2595C128.128 42.6486 121.22 35.1829 112.38 29.8626C103.627 24.4564 92.9851 21.8391 80.4555 22.0108C65.6946 22.1824 53.2937 26.3014 43.2529 34.3677C33.212 42.3482 26.5181 53.2892 23.1712 67.1908L0 63.8441C4.63424 43.5067 14.1173 27.8031 28.4491 16.7333C42.7809 5.57778 60.5025 0 81.614 0C99.6361 0 114.955 4.03316 127.57 12.0995C140.186 20.1658 149.84 31.4501 156.534 45.9523C163.314 60.4545 166.79 77.3166 166.961 96.5385C167.219 114.559 164.043 130.863 157.435 145.451C150.827 160.039 141.087 171.624 128.214 180.205C115.427 188.786 99.8935 193.077 81.614 193.077Z" fill="black" fill-opacity="0.1"/>
<path d="M216.524 189.215V71.0523H168.122V50.2H287.839V71.0523H239.437V189.215H216.524Z" fill="black" fill-opacity="0.1"/>
<path d="M334.329 193.077C323.945 193.077 315.234 191.189 308.197 187.413C301.245 183.552 295.968 178.489 292.363 172.225C288.845 165.96 287.085 159.095 287.085 151.63C287.085 144.336 288.458 138.029 291.205 132.708C294.037 127.302 297.984 122.84 303.048 119.322C308.111 115.717 314.161 112.886 321.198 110.826C327.806 109.024 335.187 107.479 343.34 106.192C351.578 104.819 359.903 103.575 368.313 102.459C376.723 101.344 384.576 100.271 391.87 99.2415L383.632 104.004C383.889 91.6472 381.4 82.5082 376.166 76.5872C371.016 70.6662 362.091 67.7056 349.39 67.7056C340.98 67.7056 333.599 69.6364 327.249 73.4979C320.984 77.2737 316.564 83.4521 313.99 92.0333L292.234 85.4687C295.581 73.2834 302.061 63.7154 311.672 56.7646C321.284 49.8138 333.943 46.3385 349.647 46.3385C362.263 46.3385 373.076 48.6125 382.087 53.1605C391.184 57.6227 397.706 64.4019 401.654 73.4979C403.628 77.7885 404.872 82.4653 405.387 87.5282C405.902 92.5053 406.159 97.7398 406.159 103.232V189.215H385.82V155.877L390.583 158.967C385.348 170.208 378.011 178.703 368.571 184.453C359.216 190.202 347.802 193.077 334.329 193.077ZM337.804 173.898C346.043 173.898 353.166 172.439 359.173 169.522C365.266 166.518 370.158 162.614 373.848 157.808C377.539 152.917 379.942 147.597 381.057 141.847C382.345 137.557 383.031 132.794 383.117 127.559C383.289 122.239 383.374 118.163 383.374 115.331L391.356 118.807C383.889 119.836 376.552 120.823 369.343 121.767C362.134 122.711 355.311 123.741 348.875 124.856C342.439 125.886 336.646 127.13 331.497 128.589C327.721 129.791 324.159 131.335 320.812 133.223C317.551 135.111 314.891 137.557 312.831 140.56C310.857 143.478 309.87 147.125 309.87 151.501C309.87 155.277 310.814 158.881 312.702 162.313C314.676 165.746 317.68 168.535 321.713 170.68C325.833 172.825 331.196 173.898 337.804 173.898Z" fill="black" fill-opacity="0.1"/>
<path d="M426.627 189.215V50.2H540.552V189.215H517.638V71.9533H449.541V189.215H426.627Z" fill="black" fill-opacity="0.1"/>
<path d="M563.731 189.215L563.603 50.2H586.645V100.529H607.885C611.919 100.529 616.038 100.615 620.243 100.786C624.448 100.958 628.096 101.344 631.185 101.945C638.394 103.403 644.702 105.849 650.108 109.282C655.515 112.714 659.72 117.348 662.724 123.183C665.727 129.018 667.229 136.269 667.229 144.936C667.229 156.95 664.097 166.475 657.832 173.512C651.653 180.463 643.543 185.096 633.502 187.413C630.07 188.186 626.122 188.701 621.659 188.958C617.283 189.13 613.12 189.215 609.173 189.215H563.731ZM586.645 170.294H609.559C612.133 170.294 615.008 170.208 618.184 170.036C621.359 169.865 624.191 169.436 626.68 168.749C631.056 167.462 634.961 164.931 638.394 161.155C641.913 157.379 643.672 151.973 643.672 144.936C643.672 137.814 641.956 132.322 638.523 128.461C635.176 124.599 630.756 122.068 625.264 120.866C622.775 120.265 620.157 119.879 617.411 119.708C614.665 119.536 612.048 119.45 609.559 119.45H586.645V170.294ZM683.192 189.215V50.2H706.105V189.215H683.192Z" fill="black" fill-opacity="0.1"/>
<path d="M768.038 189.215V50.2H864.584V71.9533H790.952V189.215H768.038Z" fill="black" fill-opacity="0.1"/>
<path d="M939.949 193.077C926.905 193.077 915.92 189.859 906.995 183.423C898.069 176.901 891.29 168.106 886.655 157.036C882.107 145.88 879.833 133.395 879.833 119.579C879.833 105.592 882.107 93.0631 886.655 81.9933C891.29 70.9236 898.069 62.2137 906.995 55.8636C916.006 49.5135 927.033 46.3385 940.078 46.3385C952.951 46.3385 964.021 49.5564 973.29 55.9923C982.644 62.3424 989.81 71.0523 994.788 82.1221C999.765 93.1918 1002.25 105.677 1002.25 119.579C1002.25 133.481 999.765 145.966 994.788 157.036C989.81 168.106 982.644 176.901 973.29 183.423C964.021 189.859 952.908 193.077 939.949 193.077ZM875.971 251V50.2H896.439V152.531H899.013V251H875.971ZM937.117 172.096C946.3 172.096 953.895 169.779 959.902 165.145C965.909 160.511 970.415 154.247 973.419 146.352C976.422 138.372 977.924 129.447 977.924 119.579C977.924 109.796 976.422 100.958 973.419 93.0631C970.501 85.1684 965.952 78.9041 959.773 74.2703C953.68 69.6364 945.914 67.3195 936.473 67.3195C927.462 67.3195 919.996 69.5506 914.075 74.0128C908.153 78.3892 903.733 84.5248 900.816 92.4195C897.898 100.228 896.439 109.282 896.439 119.579C896.439 129.705 897.855 138.758 900.687 146.738C903.605 154.633 908.067 160.855 914.075 165.403C920.082 169.865 927.763 172.096 937.117 172.096Z" fill="black" fill-opacity="0.1"/>
<path d="M1031.88 251L1058.79 177.888L1059.17 199.513L998.412 50.2H1022.48L1070.11 170.294H1061.88L1106.54 50.2H1129.84L1054.15 251H1031.88Z" fill="black" fill-opacity="0.1"/>
<path d="M1138.1 189.215V50.2H1157.8L1210.58 158.066L1263.36 50.2H1283.05V189.215H1260.91V97.9544L1216.63 189.215H1204.53L1160.25 97.9544V189.215H1138.1Z" fill="black" fill-opacity="0.1"/>
<path d="M1419.93 50.2V189.215H1397.79V86.7559L1324.93 189.215H1306.01V50.2H1328.15V151.244L1401.14 50.2H1419.93Z" fill="black" fill-opacity="0.1"/>
<path d="M1442.98 189.215V50.2H1465.89V108.767H1539.01V50.2H1561.93V189.215H1539.01V130.52H1465.89V189.215H1442.98Z" fill="black" fill-opacity="0.1"/>
<path d="M1585.11 189.215V50.2H1681.66V71.9533H1608.03V189.215H1585.11Z" fill="black" fill-opacity="0.1"/>
<path d="M1728.17 193.077C1717.79 193.077 1709.07 191.189 1702.04 187.413C1695.09 183.552 1689.81 178.489 1686.2 172.225C1682.69 165.96 1680.93 159.095 1680.93 151.63C1680.93 144.336 1682.3 138.029 1685.05 132.708C1687.88 127.302 1691.82 122.84 1696.89 119.322C1701.95 115.717 1708 112.886 1715.04 110.826C1721.65 109.024 1729.03 107.479 1737.18 106.192C1745.42 104.819 1753.74 103.575 1762.15 102.459C1770.56 101.344 1778.42 100.271 1785.71 99.2415L1777.47 104.004C1777.73 91.6472 1775.24 82.5082 1770.01 76.5872C1764.86 70.6662 1755.93 67.7056 1743.23 67.7056C1734.82 67.7056 1727.44 69.6364 1721.09 73.4979C1714.82 77.2737 1710.4 83.4521 1707.83 92.0333L1686.08 85.4687C1689.42 73.2834 1695.9 63.7154 1705.51 56.7646C1715.12 49.8138 1727.78 46.3385 1743.49 46.3385C1756.1 46.3385 1766.92 48.6125 1775.93 53.1605C1785.02 57.6227 1791.55 64.4019 1795.49 73.4979C1797.47 77.7885 1798.71 82.4653 1799.23 87.5282C1799.74 92.5053 1800 97.7398 1800 103.232V189.215H1779.66V155.877L1784.42 158.967C1779.19 170.208 1771.85 178.703 1762.41 184.453C1753.06 190.202 1741.64 193.077 1728.17 193.077ZM1731.65 173.898C1739.88 173.898 1747.01 172.439 1753.01 169.522C1759.11 166.518 1764 162.614 1767.69 157.808C1771.38 152.917 1773.78 147.597 1774.9 141.847C1776.19 137.557 1776.87 132.794 1776.96 127.559C1777.13 122.239 1777.21 118.163 1777.21 115.331L1785.2 118.807C1777.73 119.836 1770.39 120.823 1763.18 121.767C1755.97 122.711 1749.15 123.741 1742.72 124.856C1736.28 125.886 1730.49 127.13 1725.34 128.589C1721.56 129.791 1718 131.335 1714.65 133.223C1711.39 135.111 1708.73 137.557 1706.67 140.56C1704.7 143.478 1703.71 147.125 1703.71 151.501C1703.71 155.277 1704.65 158.881 1706.54 162.313C1708.52 165.746 1711.52 168.535 1715.55 170.68C1719.67 172.825 1725.04 173.898 1731.65 173.898Z" fill="black" fill-opacity="0.1"/>
</svg>
