<svg width="260" height="21" viewBox="0 0 260 21" fill="none" xmlns="http://www.w3.org/2000/svg">
<path d="M20.3272 20.6192H10.1501L0 0.380829H8.69236L15.4411 14.4987L21.7849 0.380829H29.7484L20.3272 20.6192Z" fill="white"/>
<path d="M42.665 0H43.8798C56.8373 0 58.511 6.22927 58.511 10.0376V10.8536C58.511 14.6347 56.8643 21 43.8798 21H42.665C29.6535 21 28.0068 14.6347 28.0068 10.8536V10.0376C28.0068 6.22927 29.6535 0 42.665 0ZM50.5745 10.6088V10.228C50.5745 8.07902 49.1978 5.44041 43.2589 5.44041C37.212 5.44041 35.9433 8.07902 35.9433 10.228V10.5544C35.9433 12.6762 37.32 15.5324 43.2589 15.5324C49.1978 15.5324 50.5745 12.785 50.5745 10.6088Z" fill="white"/>
<path d="M67.5484 5.3044V8.78627H76.3487C78.0494 8.78627 78.6703 8.02461 78.6703 7.04534V7.01814C78.6703 6.06606 78.0764 5.3044 76.3487 5.3044H67.5484ZM67.5484 13.6826V20.6192H59.8818V0.380829H78.1304C83.9883 0.380829 86.5798 2.28497 86.5798 5.57642V5.87565C86.5798 8.81347 84.0423 10.0376 82.5305 10.3912C85.0141 10.9624 86.6608 12.5946 86.6608 15.206V18.1982C86.6608 19.6127 86.8497 20.1295 87.0387 20.4832V20.6192H79.2102C79.0212 20.4016 78.9672 20.1295 78.9672 19.5583V17.1917C78.9672 14.8795 77.9144 13.6826 74.891 13.6826H67.5484Z" fill="white"/>
<path d="M102.113 0H103.328C116.285 0 117.959 6.22927 117.959 10.0376V10.8536C117.959 14.6347 116.312 21 103.328 21H102.113C89.1013 21 87.4546 14.6347 87.4546 10.8536V10.0376C87.4546 6.22927 89.1013 0 102.113 0ZM110.022 10.6088V10.228C110.022 8.07902 108.646 5.44041 102.707 5.44041C96.6598 5.44041 95.3911 8.07902 95.3911 10.228V10.5544C95.3911 12.6762 96.7678 15.5324 102.707 15.5324C108.646 15.5324 110.022 12.785 110.022 10.6088Z" fill="white"/>
<path d="M119.33 0.380829H127.914L139.576 11.8873V0.380829H147.188V20.6192H139.522L126.942 8.35104V20.6192H119.33V0.380829Z" fill="white"/>
<path d="M157.283 20.6192V5.90285H148.617V0.380829H173.614V5.90285H164.949V20.6192H157.283Z" fill="white"/>
<path d="M188.776 21H186.319C175.224 21 174.063 16.4573 174.063 13.8187V13.5466H182.486C182.567 14.6347 183.134 16.4029 187.507 16.4029H187.75C192.042 16.4029 192.663 15.478 192.663 14.4987V14.4715C192.663 13.4378 192.15 12.785 187.939 12.649L184.214 12.5402C176.439 12.3225 174.36 9.57513 174.36 6.44689V6.20207C174.36 2.91062 176.547 0.0272017 185.914 0.0272017H188.317C198.251 0.0272017 200.518 3.20984 200.518 6.41969V6.63731H192.177C192.096 5.90285 191.664 4.48834 187.318 4.48834H187.048C183.026 4.48834 182.621 5.1956 182.621 5.98446V6.01166C182.621 6.82772 183.215 7.48057 186.994 7.56218L190.611 7.64378C198.251 7.8614 201.22 9.65674 201.22 13.737V14.1179C201.22 17.5181 199.331 21 188.776 21Z" fill="white"/>
<path d="M216.395 0H217.61C230.567 0 232.241 6.22927 232.241 10.0376V10.8536C232.241 14.6347 230.594 21 217.61 21H216.395C203.383 21 201.737 14.6347 201.737 10.8536V10.0376C201.737 6.22927 203.383 0 216.395 0ZM224.305 10.6088V10.228C224.305 8.07902 222.928 5.44041 216.989 5.44041C210.942 5.44041 209.673 8.07902 209.673 10.228V10.5544C209.673 12.6762 211.05 15.5324 216.989 15.5324C222.928 15.5324 224.305 12.785 224.305 10.6088Z" fill="white"/>
<path d="M250.579 20.6192H240.402L230.252 0.380829H238.944L245.693 14.4987L252.037 0.380829H260L250.579 20.6192Z" fill="white"/>
</svg>
