<svg width="130" height="40" viewBox="0 0 130 40" fill="none" xmlns="http://www.w3.org/2000/svg">
<g id="Logo">
<g id="Union">
<path fill-rule="evenodd" clip-rule="evenodd" d="M47.3813 23.7117C48.5497 22.9627 49.1339 21.9037 49.1339 20.5347V11.1585C49.1339 9.78949 48.5497 8.74338 47.3813 8.02015C46.2505 7.27108 44.7806 6.89655 42.9714 6.89655C41.1622 6.89655 39.6546 7.27108 38.4485 8.02015C37.28 8.76921 36.6958 9.81532 36.6958 11.1585V20.5347C36.6958 21.9037 37.28 22.9627 38.4485 23.7117C39.6169 24.435 41.1057 24.7966 42.9149 24.7966C44.724 24.7966 46.2128 24.435 47.3813 23.7117ZM42.9149 10.3836C43.2918 10.3836 43.4802 10.5773 43.4802 10.9647V20.7284C43.4802 21.1158 43.2918 21.3096 42.9149 21.3096C42.5379 21.3096 42.3495 21.1158 42.3495 20.7284V10.9647C42.3495 10.5773 42.5379 10.3836 42.9149 10.3836Z" fill="#9A500F"/>
<path fill-rule="evenodd" clip-rule="evenodd" d="M62.716 20.5347C62.716 21.9037 62.1318 22.9627 60.9633 23.7117C59.7949 24.435 58.3061 24.7966 56.4969 24.7966C54.6878 24.7966 53.199 24.435 52.0305 23.7117C50.8621 22.9627 50.2779 21.9037 50.2779 20.5347V11.1585C50.2779 9.81532 50.8621 8.76921 52.0305 8.02015C53.2367 7.27108 54.7443 6.89655 56.5535 6.89655C58.3627 6.89655 59.8326 7.27108 60.9633 8.02015C62.1318 8.74338 62.716 9.78949 62.716 11.1585V20.5347ZM57.0623 10.9647C57.0623 10.5773 56.8739 10.3836 56.4969 10.3836C56.12 10.3836 55.9316 10.5773 55.9316 10.9647V20.7284C55.9316 21.1158 56.12 21.3096 56.4969 21.3096C56.8739 21.3096 57.0623 21.1158 57.0623 20.7284V10.9647Z" fill="#9A500F"/>
<path d="M50.6619 29.2515L52.0444 27.2406C52.728 26.2464 52.0777 24.8276 50.9384 24.8276H48.1732C47.0339 24.8276 46.3836 26.2464 47.0672 27.2406L48.4497 29.2515C48.5667 29.4216 48.7085 29.5558 48.8645 29.654V30.5137C48.8645 31.2326 48.3993 31.8516 47.7531 31.9926L43.1852 32.9891C42.8109 33.0708 42.5681 33.4681 42.6429 33.8764C42.7178 34.2848 43.082 34.5496 43.4564 34.468L49.2846 33.1964C49.4636 33.1574 49.6479 33.1574 49.8269 33.1964L55.6552 34.468C56.0296 34.5496 56.3938 34.2848 56.4687 33.8764C56.5435 33.4681 56.3007 33.0708 55.9264 32.9891L51.3585 31.9926C50.7123 31.8516 50.2471 31.2326 50.2471 30.5137V29.654C50.4031 29.5558 50.5449 29.4216 50.6619 29.2515Z" fill="#9A500F"/>
<path fill-rule="evenodd" clip-rule="evenodd" d="M28.7765 20C28.7765 11.5928 28.7765 7.38918 30.9574 4.46125C31.6067 3.58955 32.3816 2.818 33.2571 2.1715C36.1977 0 40.4195 0 48.8632 0H50.2484C58.6921 0 62.9139 0 65.8545 2.1715C66.73 2.818 67.5049 3.58955 68.1542 4.46125C70.3351 7.38918 70.3351 11.5928 70.3351 20C70.3351 28.4072 70.3351 32.6108 68.1542 35.5388C67.5049 36.4104 66.73 37.182 65.8545 37.8285C62.9139 40 58.6921 40 50.2484 40H48.8632C40.4195 40 36.1977 40 33.2571 37.8285C32.3816 37.182 31.6067 36.4104 30.9574 35.5388C28.7765 32.6108 28.7765 28.4072 28.7765 20ZM48.8632 2.75862H50.2484C54.533 2.75862 57.5203 2.76252 59.8122 3.01352C62.0507 3.25868 63.2893 3.71174 64.2041 4.38725C64.8607 4.87212 65.4418 5.45079 65.9288 6.10456C66.6072 7.01538 67.0623 8.24864 67.3085 10.4775C67.5606 12.7595 67.5645 15.7339 67.5645 20C67.5645 24.2661 67.5606 27.2405 67.3085 29.5225C67.0623 31.7514 66.6072 32.9846 65.9288 33.8954C65.4418 34.5492 64.8607 35.1279 64.2041 35.6128C63.2893 36.2883 62.0507 36.7413 59.8122 36.9865C57.5203 37.2375 54.533 37.2414 50.2484 37.2414H48.8632C44.5786 37.2414 41.5913 37.2375 39.2994 36.9865C37.0609 36.7413 35.8223 36.2883 34.9075 35.6128C34.2509 35.1279 33.6698 34.5492 33.1828 33.8954C32.5044 32.9846 32.0493 31.7514 31.8031 29.5225C31.551 27.2405 31.5471 24.2661 31.5471 20C31.5471 15.7339 31.551 12.7595 31.8031 10.4775C32.0493 8.24864 32.5044 7.01538 33.1828 6.10456C33.6698 5.45079 34.2509 4.87212 34.9075 4.38725C35.8223 3.71174 37.0609 3.25868 39.2994 3.01352C41.5913 2.76252 44.5786 2.75862 48.8632 2.75862Z" fill="#9A500F"/>
<path d="M9.66753 19.9535C10.9736 19.9535 11.6266 19.9535 12.0324 20.3575C12.4381 20.7615 12.4381 21.4117 12.4381 22.7121V31.4917C12.4381 32.7921 12.4381 33.4423 12.0324 33.8463C11.6266 34.2503 10.9736 34.2503 9.66753 34.2503H7.69283C7.19112 34.2503 6.78441 33.8453 6.78441 33.3458V32.7541C6.78441 32.722 6.76398 32.6935 6.73353 32.6831C6.6979 32.6709 6.65874 32.6868 6.64119 32.72C6.34239 33.2855 5.93784 33.7181 5.42753 34.0178C4.89986 34.3278 4.2968 34.4828 3.61835 34.4828C2.563 34.4828 1.6961 34.1211 1.01766 33.3979C0.339221 32.6488 0 31.5898 0 30.2208V11.1585C0 9.81532 0.584213 8.76921 1.75264 8.02015C2.95876 7.27108 4.46641 6.89655 6.27558 6.89655C8.08476 6.89655 9.55472 7.27108 10.6855 8.02015C11.8539 8.74338 12.4381 9.78949 12.4381 11.1585V14.6377C12.4381 15.9382 12.4381 16.5884 12.0324 16.9924C11.6266 17.3964 10.9736 17.3964 9.66753 17.3964H9.55498C8.24892 17.3964 7.5959 17.3964 7.19016 16.9924C6.78441 16.5884 6.78441 15.9382 6.78441 14.6377V10.9647C6.78441 10.5773 6.59596 10.3836 6.21905 10.3836C5.84213 10.3836 5.65368 10.5773 5.65368 10.9647V30.5695C5.65368 30.957 5.84213 31.1507 6.21905 31.1507C6.59596 31.1507 6.78441 30.957 6.78441 30.5695V23.722C6.78441 23.5665 6.65785 23.4405 6.50173 23.4405C6.34561 23.4405 6.21905 23.3145 6.21905 23.1591V21.697C6.21905 21.3585 6.21905 21.1893 6.24873 21.0488C6.36181 20.5137 6.78168 20.0956 7.3191 19.9831C7.46017 19.9535 7.63015 19.9535 7.97011 19.9535H9.66753Z" fill="#9A500F"/>
<path fill-rule="evenodd" clip-rule="evenodd" d="M20.3665 22.8206C20.3665 22.4332 20.178 22.2394 19.8011 22.2394C19.4889 22.2394 19.2358 22.4915 19.2358 22.8024V31.4917C19.2358 32.7921 19.2358 33.4423 18.83 33.8463C18.4243 34.2503 17.7713 34.2503 16.4652 34.2503H16.3526C15.0466 34.2503 14.3936 34.2503 13.9878 33.8463C13.5821 33.4423 13.5821 32.7921 13.5821 31.4917V9.88764C13.5821 8.58721 13.5821 7.937 13.9878 7.53301C14.3936 7.12902 15.0466 7.12902 16.3526 7.12902H19.8577C21.9307 7.12902 23.476 7.43898 24.4937 8.05889C25.5113 8.65298 26.0202 9.63451 26.0202 11.0035V16.5052C26.0202 17.0735 26.0013 17.5772 25.9636 18.0163C25.9259 18.4554 25.8129 18.8428 25.6244 19.1786C25.4737 19.4886 25.2287 19.7469 24.8894 19.9535C24.595 20.1553 24.1928 20.3201 23.6828 20.448C23.661 20.4534 23.6456 20.4729 23.6456 20.4953C23.6456 20.5183 23.662 20.5381 23.6845 20.5431C24.7543 20.7773 25.401 21.2007 25.6244 21.8133C25.8883 22.4332 26.0202 23.3243 26.0202 24.4866V31.8094C26.0579 32.0935 26.0956 32.3647 26.1332 32.623C26.1709 32.8813 26.2275 33.1267 26.3029 33.3592C26.4872 33.7381 26.2135 34.1793 25.7907 34.1849L22.4082 34.2299C21.8933 34.2367 21.6358 34.2402 21.3776 34.1365C21.1417 34.0418 20.8539 33.8011 20.7195 33.5861C20.5724 33.3508 20.5415 33.1598 20.4796 32.778C20.4042 32.2872 20.3665 31.6027 20.3665 30.7245V22.8206ZM20.3665 11.1972C20.3665 10.8098 20.178 10.616 19.8011 10.616C19.4889 10.616 19.2358 10.8681 19.2358 11.179V18.1895C19.2358 18.5004 19.4889 18.7524 19.8011 18.7524C20.178 18.7524 20.3665 18.5587 20.3665 18.1713V11.1972Z" fill="#9A500F"/>
<path d="M93.1128 33.783C93.4589 33.3921 93.4589 32.7955 93.4589 31.6023V9.88764C93.4589 8.58721 93.4588 7.937 93.0531 7.53301C92.6474 7.12902 91.9943 7.12902 90.6883 7.12902H86.9052C85.6462 7.12902 85.0166 7.12902 84.6145 7.51368C84.2124 7.89834 84.1872 8.52462 84.1368 9.77718L83.6215 22.5881L83.3983 26.8322C83.3966 26.8639 83.3703 26.8888 83.3384 26.8888C83.3068 26.8888 83.2806 26.8644 83.2786 26.833L82.9996 22.5881L82.4369 9.76721C82.3821 8.51899 82.3547 7.89488 81.953 7.51195C81.5512 7.12902 80.9238 7.12902 79.669 7.12902H75.8762C74.5701 7.12902 73.9171 7.12902 73.5114 7.53301C73.1056 7.937 73.1056 8.58721 73.1056 9.88764V31.6023C73.1056 32.7955 73.1056 33.3921 73.4517 33.783C73.4901 33.8264 73.5313 33.8674 73.575 33.9058C73.9676 34.2503 74.5667 34.2503 75.7651 34.2503C76.9848 34.2503 77.5946 34.2503 77.9894 33.8976C78.0332 33.8584 78.0745 33.8165 78.113 33.7721C78.4595 33.3723 78.4477 32.7652 78.4241 31.551L78.1374 16.8152L78.1932 12.2245C78.1936 12.192 78.2202 12.1658 78.2529 12.1658C78.2836 12.1658 78.3093 12.189 78.3122 12.2195L78.7593 16.8152L80.5098 31.8102C80.6453 32.9713 80.7131 33.5518 81.1069 33.9011C81.5008 34.2503 82.0878 34.2503 83.2618 34.2503H83.3592C84.5332 34.2503 85.1202 34.2503 85.5141 33.9011C85.9079 33.5518 85.9757 32.9713 86.1112 31.8102L87.8617 16.8152L88.2529 12.2199C88.2555 12.1893 88.2812 12.1658 88.312 12.1658C88.3444 12.1658 88.3709 12.1918 88.3713 12.2242L88.4271 16.8152L88.1404 31.551C88.1168 32.7652 88.1049 33.3723 88.4515 33.7721C88.4899 33.8165 88.5312 33.8584 88.5751 33.8976C88.9698 34.2503 89.5797 34.2503 90.7994 34.2503C91.9977 34.2503 92.5969 34.2503 92.9895 33.9058C93.0332 33.8674 93.0743 33.8264 93.1128 33.783Z" fill="#9A500F"/>
<path d="M102.553 9.49018C102.553 10.112 102.047 10.616 101.423 10.616C100.798 10.616 100.292 11.1201 100.292 11.7419V17.6123C100.292 18.1564 100.735 18.5974 101.281 18.5974C101.828 18.5974 102.271 19.0385 102.271 19.5826V21.0993C102.271 21.6434 101.828 22.0845 101.281 22.0845C100.735 22.0845 100.292 22.5255 100.292 23.0696V29.4967C100.292 30.1962 100.861 30.7633 101.564 30.7633C102.266 30.7633 102.836 31.3303 102.836 32.0299V32.5068C102.836 32.8453 102.836 33.0145 102.806 33.155C102.693 33.6901 102.273 34.1082 101.736 34.2207C101.595 34.2503 101.425 34.2503 101.085 34.2503H97.4087C96.1027 34.2503 95.4497 34.2503 95.0439 33.8463C94.6382 33.4423 94.6382 32.7921 94.6382 31.4917V9.88764C94.6382 8.58721 94.6382 7.937 95.0439 7.53301C95.4497 7.12902 96.1027 7.12902 97.4087 7.12902H100.802C101.142 7.12902 101.312 7.12902 101.453 7.15857C101.991 7.27116 102.411 7.68923 102.524 8.22433C102.553 8.36479 102.553 8.53404 102.553 8.87253V9.49018Z" fill="#9A500F"/>
<path fill-rule="evenodd" clip-rule="evenodd" d="M109.912 22.2394C110.289 22.2394 110.477 22.4332 110.477 22.8206V30.7245C110.477 31.6027 110.515 32.2872 110.59 32.778C110.652 33.1598 110.683 33.3508 110.83 33.5861C110.965 33.8011 111.253 34.0418 111.488 34.1365C111.747 34.2402 112.004 34.2367 112.519 34.2299L115.902 34.1849C116.324 34.1793 116.598 33.7381 116.414 33.3592C116.338 33.1267 116.282 32.8813 116.244 32.623C116.206 32.3647 116.169 32.0935 116.131 31.8094V24.4866C116.131 23.3243 115.999 22.4332 115.735 21.8133C115.512 21.2007 114.865 20.7773 113.795 20.5431C113.773 20.5381 113.756 20.5183 113.756 20.4953C113.756 20.4729 113.772 20.4534 113.794 20.448C114.304 20.3201 114.706 20.1553 115 19.9535C115.339 19.7469 115.584 19.4886 115.735 19.1786C115.924 18.8428 116.037 18.4554 116.074 18.0163C116.112 17.5772 116.131 17.0735 116.131 16.5052V11.0035C116.131 9.63451 115.622 8.65298 114.604 8.05889C113.587 7.43898 112.041 7.12902 109.968 7.12902H106.463C105.157 7.12902 104.504 7.12902 104.099 7.53301C103.693 7.937 103.693 8.58721 103.693 9.88764V31.4917C103.693 32.7921 103.693 33.4423 104.099 33.8463C104.504 34.2503 105.157 34.2503 106.463 34.2503H106.576C107.882 34.2503 108.535 34.2503 108.941 33.8463C109.347 33.4423 109.347 32.7921 109.347 31.4917V22.8024C109.347 22.4915 109.6 22.2394 109.912 22.2394ZM109.912 10.616C110.289 10.616 110.477 10.8098 110.477 11.1972V18.1713C110.477 18.5587 110.289 18.7524 109.912 18.7524C109.6 18.7524 109.347 18.5004 109.347 18.1895V11.179C109.347 10.8681 109.6 10.616 109.912 10.616Z" fill="#9A500F"/>
<path d="M129.6 30.2208C129.6 31.5898 129.016 32.6488 127.847 33.3979C126.679 34.1211 125.19 34.4828 123.381 34.4828C121.572 34.4828 120.083 34.1211 118.915 33.3979C117.746 32.6488 117.162 31.5898 117.162 30.2208V27.4777C117.162 26.1773 117.162 25.5271 117.568 25.1231C117.973 24.7191 118.626 24.7191 119.932 24.7191H120.045C121.351 24.7191 122.004 24.7191 122.41 25.1231C122.816 25.5271 122.816 26.1773 122.816 27.4777V30.4146C122.816 30.802 123.004 30.9957 123.381 30.9957C123.758 30.9957 123.946 30.802 123.946 30.4146V25.9202C123.946 25.0936 123.626 24.28 122.985 23.4793C122.382 22.6527 121.704 21.8003 120.95 20.9221C120.045 19.9148 119.178 18.8687 118.349 17.7838C117.558 16.6731 117.162 15.4979 117.162 14.258V11.1585C117.162 9.81532 117.746 8.76921 118.915 8.02015C120.121 7.27108 121.628 6.89655 123.437 6.89655C125.247 6.89655 126.717 7.27108 127.847 8.02015C129.016 8.74338 129.6 9.78949 129.6 11.1585V12.7005C129.6 14.0009 129.6 14.6511 129.194 15.0551C128.789 15.4591 128.135 15.4591 126.829 15.4591H126.717C125.411 15.4591 124.758 15.4591 124.352 15.0551C123.946 14.6511 123.946 14.0009 123.946 12.7005V10.9647C123.946 10.5773 123.758 10.3836 123.381 10.3836C123.004 10.3836 122.816 10.5773 122.816 10.9647V14.258C122.816 15.0846 123.117 15.9111 123.72 16.7377C124.361 17.5384 125.077 18.3779 125.869 19.2561C126.773 20.2635 127.621 21.3225 128.413 22.4332C129.204 23.518 129.6 24.6804 129.6 25.9202V30.2208Z" fill="#9A500F"/>
</g>
</g>
</svg>
