<svg width="50" height="47" viewBox="0 0 50 47" fill="none" xmlns="http://www.w3.org/2000/svg">
<g id="Union">
<path fill-rule="evenodd" clip-rule="evenodd" d="M22.3838 27.8613C23.7895 26.9811 24.4924 25.7368 24.4924 24.1282V13.1112C24.4924 11.5026 23.7895 10.2735 22.3838 9.42367C21.0234 8.54352 19.2548 8.10345 17.0782 8.10345C14.9015 8.10345 13.0876 8.54352 11.6365 9.42367C10.2307 10.3038 9.52787 11.533 9.52787 13.1112V24.1282C9.52787 25.7368 10.2307 26.9811 11.6365 27.8613C13.0423 28.7111 14.8335 29.136 17.0101 29.136C19.1868 29.136 20.978 28.7111 22.3838 27.8613ZM17.0101 12.2007C17.4636 12.2007 17.6903 12.4283 17.6903 12.8836V24.3559C17.6903 24.8111 17.4636 25.0387 17.0101 25.0387C16.5567 25.0387 16.3299 24.8111 16.3299 24.3559V12.8836C16.3299 12.4283 16.5567 12.2007 17.0101 12.2007Z" fill="white"/>
<path fill-rule="evenodd" clip-rule="evenodd" d="M40.8333 24.1282C40.8333 25.7368 40.1304 26.9811 38.7247 27.8613C37.3189 28.7111 35.5277 29.136 33.351 29.136C31.1744 29.136 29.3832 28.7111 27.9774 27.8613C26.5717 26.9811 25.8688 25.7368 25.8688 24.1282V13.1112C25.8688 11.533 26.5717 10.3038 27.9774 9.42367C29.4285 8.54352 31.2424 8.10345 33.4191 8.10345C35.5957 8.10345 37.3643 8.54352 38.7247 9.42367C40.1304 10.2735 40.8333 11.5026 40.8333 13.1112V24.1282ZM34.0313 12.8836C34.0313 12.4283 33.8045 12.2007 33.351 12.2007C32.8976 12.2007 32.6708 12.4283 32.6708 12.8836V24.3559C32.6708 24.8111 32.8976 25.0387 33.351 25.0387C33.8045 25.0387 34.0313 24.8111 34.0313 24.3559V12.8836Z" fill="white"/>
<path d="M26.3307 34.3705L27.9941 32.0077C28.8166 30.8395 28.0341 29.1724 26.6634 29.1724H23.3366C21.9659 29.1724 21.1834 30.8395 22.0059 32.0077L23.6693 34.3705C23.81 34.5704 23.9806 34.7281 24.1683 34.8434V35.8536C24.1683 36.6983 23.6086 37.4256 22.8311 37.5913L17.3354 38.7622C16.885 38.8582 16.5929 39.325 16.683 39.8048C16.7731 40.2846 17.2112 40.5958 17.6616 40.4999L24.6738 39.0058C24.8891 38.9599 25.1109 38.9599 25.3262 39.0058L32.3384 40.4999C32.7888 40.5958 33.2269 40.2846 33.317 39.8048C33.4071 39.325 33.115 38.8582 32.6646 38.7622L27.1689 37.5913C26.3914 37.4256 25.8317 36.6983 25.8317 35.8536V34.8434C26.0194 34.7281 26.19 34.5704 26.3307 34.3705Z" fill="white"/>
<path fill-rule="evenodd" clip-rule="evenodd" d="M0 23.5C0 13.6215 -2.00793e-06 8.68229 2.6239 5.24197C3.40508 4.21772 4.33737 3.31115 5.39068 2.55152C8.92859 0 14.0079 0 24.1667 0L25.8333 0C35.992 0 41.0714 0 44.6093 2.55152C45.6626 3.31115 46.5949 4.21772 47.3761 5.24197C50 8.68229 50 13.6215 50 23.5C50 33.3785 50 38.3177 47.3761 41.758C46.5949 42.7823 45.6626 43.6889 44.6093 44.4485C41.0714 47 35.992 47 25.8333 47H24.1667C14.0079 47 8.92859 47 5.39068 44.4485C4.33737 43.6889 3.40508 42.7823 2.6239 41.758C-2.00793e-06 38.3177 0 33.3785 0 23.5ZM24.1667 3.24138H25.8333C30.9882 3.24138 34.5823 3.24597 37.3397 3.54089C40.0329 3.82895 41.5231 4.36129 42.6236 5.15502C43.4136 5.72474 44.1129 6.40467 44.6987 7.17285C45.515 8.24307 46.0624 9.69215 46.3587 12.3111C46.6619 14.9924 46.6667 18.4874 46.6667 23.5C46.6667 28.5126 46.6619 32.0076 46.3587 34.6889C46.0624 37.3078 45.515 38.7569 44.6987 39.8271C44.1129 40.5953 43.4136 41.2753 42.6236 41.845C41.5231 42.6387 40.0329 43.1711 37.3397 43.4591C34.5823 43.754 30.9882 43.7586 25.8333 43.7586H24.1667C19.0118 43.7586 15.4177 43.754 12.6603 43.4591C9.9671 43.1711 8.47692 42.6387 7.37634 41.845C6.58636 41.2753 5.88714 40.5953 5.30126 39.8271C4.48501 38.7569 3.93757 37.3078 3.64134 34.6889C3.33805 32.0076 3.33333 28.5126 3.33333 23.5C3.33333 18.4874 3.33805 14.9924 3.64134 12.3111C3.93757 9.69215 4.48501 8.24307 5.30126 7.17285C5.88714 6.40467 6.58636 5.72474 7.37634 5.15502C8.47692 4.36129 9.9671 3.82895 12.6603 3.54089C15.4177 3.24597 19.0118 3.24138 24.1667 3.24138Z" fill="white"/>
</g>
</svg>
