<svg width="1863" height="274" viewBox="0 0 1863 274" fill="none" xmlns="http://www.w3.org/2000/svg">
<g opacity="0.2">
<path d="M1764.47 274C1745.83 274 1729.01 270.834 1714.02 264.501C1699.15 258.169 1686.85 249.157 1677.1 237.466C1667.47 225.654 1661.19 211.71 1658.27 195.636L1691.9 190.338C1696.17 206.9 1705 219.87 1718.41 229.246C1731.94 238.502 1747.84 243.129 1766.12 243.129C1777.94 243.129 1788.6 241.302 1798.11 237.649C1807.73 233.874 1815.35 228.516 1820.96 221.574C1826.56 214.633 1829.37 206.413 1829.37 196.914C1829.37 191.069 1828.33 186.076 1826.26 181.936C1824.31 177.674 1821.57 174.081 1818.03 171.158C1814.62 168.114 1810.72 165.557 1806.33 163.486C1801.95 161.416 1797.38 159.711 1792.62 158.372L1725.54 138.461C1718.23 136.269 1711.16 133.529 1704.33 130.241C1697.51 126.831 1691.42 122.63 1686.05 117.637C1680.69 112.522 1676.43 106.434 1673.26 99.3704C1670.09 92.1855 1668.51 83.722 1668.51 73.9798C1668.51 58.3922 1672.53 45.1184 1680.57 34.1584C1688.73 23.0767 1699.76 14.6131 1713.66 8.76778C1727.55 2.92245 1743.21 0.0606694 1760.63 0.182438C1778.3 0.304222 1794.09 3.47045 1807.98 9.68111C1821.99 15.77 1833.57 24.538 1842.71 35.9851C1851.97 47.4322 1858.19 61.1322 1861.35 77.0851L1826.81 83.1131C1824.98 72.3967 1820.9 63.2025 1814.56 55.5305C1808.34 47.7367 1800.54 41.7696 1791.16 37.6291C1781.78 33.3669 1771.48 31.1749 1760.27 31.0531C1749.54 30.9313 1739.86 32.6362 1731.2 36.1678C1722.55 39.6993 1715.67 44.6313 1710.55 50.9638C1705.43 57.1744 1702.87 64.3593 1702.87 72.5184C1702.87 80.5558 1705.19 87.0709 1709.82 92.0638C1714.45 96.9349 1720.11 100.832 1726.82 103.754C1733.64 106.555 1740.28 108.869 1746.74 110.696L1796.83 125.126C1802.56 126.71 1809.14 128.902 1816.57 131.702C1824.13 134.503 1831.44 138.461 1838.51 143.576C1845.57 148.569 1851.42 155.266 1856.05 163.669C1860.68 171.95 1863 182.423 1863 195.088C1863 207.753 1860.44 219.017 1855.32 228.881C1850.33 238.745 1843.32 247.026 1834.3 253.724C1825.28 260.3 1814.8 265.293 1802.86 268.702C1790.92 272.234 1778.12 274 1764.47 274Z" fill="url(#paint0_linear_207_104)"/>
<path d="M1263.13 268.52V5.47998H1429.47V36.3507H1295.67V118.733H1407.54V149.604H1295.67V237.649H1429.47V268.52H1263.13Z" fill="url(#paint1_linear_207_104)"/>
<path d="M972.229 268.52V5.47998H1001.84L1101.28 214.999L1200.18 5.47998H1230.15V268.337H1199.26V76.9026L1109.87 268.52H1092.51L1003.12 76.9026V268.52H972.229Z" fill="url(#paint2_linear_207_104)"/>
<path d="M830.957 274C804.756 274 782.516 268.216 764.236 256.647C745.957 245.078 732.003 229.003 722.376 208.423C712.871 187.842 708.118 164.035 708.118 137C708.118 109.965 712.871 86.1578 722.376 65.5773C732.003 44.9969 745.957 28.9222 764.236 17.3533C782.516 5.78444 804.756 0 830.957 0C857.279 0 879.58 5.78444 897.86 17.3533C916.139 28.9222 930.032 44.9969 939.537 65.5773C949.043 86.1578 953.795 109.965 953.795 137C953.795 164.035 949.043 187.842 939.537 208.423C930.032 229.003 916.139 245.078 897.86 256.647C879.58 268.216 857.279 274 830.957 274ZM830.957 242.947C850.577 243.068 866.906 238.684 879.946 229.795C893.107 220.783 902.917 208.301 909.376 192.348C915.957 176.395 919.247 157.946 919.247 137C919.247 115.932 915.957 97.4831 909.376 81.652C902.917 65.8209 893.107 53.4604 879.946 44.5707C866.906 35.6809 850.577 31.1751 830.957 31.0533C811.337 30.9315 795.007 35.3155 781.968 44.2053C769.05 53.0951 759.301 65.5164 752.72 81.4693C746.14 97.4222 742.788 115.932 742.667 137C742.545 157.946 745.774 176.334 752.355 192.165C758.935 207.996 768.745 220.418 781.785 229.429C794.946 238.319 811.337 242.825 830.957 242.947Z" fill="url(#paint3_linear_207_104)"/>
<path d="M581.469 274C555.269 274 533.029 268.216 514.749 256.647C496.47 245.078 482.516 229.003 472.889 208.423C463.384 187.842 458.631 164.035 458.631 137C458.631 109.965 463.384 86.1578 472.889 65.5773C482.516 44.9969 496.47 28.9222 514.749 17.3533C533.029 5.78444 555.269 0 581.469 0C607.792 0 630.093 5.78444 648.373 17.3533C666.652 28.9222 680.545 44.9969 690.05 65.5773C699.555 86.1578 704.308 109.965 704.308 137C704.308 164.035 699.555 187.842 690.05 208.423C680.545 229.003 666.652 245.078 648.373 256.647C630.093 268.216 607.792 274 581.469 274ZM581.469 242.947C601.09 243.068 617.419 238.684 630.459 229.795C643.62 220.783 653.43 208.301 659.889 192.348C666.469 176.395 669.76 157.946 669.76 137C669.76 115.932 666.469 97.4831 659.889 81.652C653.43 65.8209 643.62 53.4604 630.459 44.5707C617.419 35.6809 601.09 31.1751 581.469 31.0533C561.849 30.9315 545.52 35.3155 532.48 44.2053C519.563 53.0951 509.814 65.5164 503.233 81.4693C496.652 97.4222 493.301 115.932 493.179 137C493.057 157.946 496.287 176.334 502.867 192.165C509.448 207.996 519.258 220.418 532.298 229.429C545.459 238.319 561.849 242.825 581.469 242.947Z" fill="url(#paint4_linear_207_104)"/>
<path d="M121.193 274C103.158 274 86.706 270.834 71.8386 264.501C56.9713 258.169 44.1756 249.096 33.4516 237.284C22.7276 225.35 14.4408 210.98 8.59139 194.175C2.8638 177.248 0 158.189 0 137C0 108.991 4.99641 84.7573 14.9892 64.2986C24.982 43.84 39.0573 28.0697 57.215 16.988C75.3727 5.7844 96.6988 0.182617 121.193 0.182617C150.684 0.182617 174.448 7.06306 192.484 20.824C210.519 34.4631 222.95 53.156 229.774 76.9026L196.871 83.6613C191.387 67.7084 182.369 54.9826 169.817 45.484C157.265 35.9853 141.606 31.236 122.839 31.236C103.219 31.1142 86.8888 35.4982 73.8494 44.3879C60.9318 53.1559 51.1827 65.5164 44.6021 81.4693C38.0215 97.4222 34.6702 115.932 34.5483 137C34.4265 157.946 37.6559 176.334 44.2365 192.165C50.8171 207.996 60.6272 220.418 73.6666 229.429C86.8279 238.319 103.219 242.825 122.839 242.947C139.778 243.068 154.036 239.841 165.613 233.265C177.19 226.689 186.147 217.191 192.484 204.769C198.821 192.348 202.659 177.43 204 160.016H148.064V133.164H238.365C238.731 135.6 238.914 138.522 238.914 141.932C239.036 145.22 239.096 147.473 239.096 148.691C239.096 172.681 234.588 194.175 225.57 213.172C216.674 232.048 203.451 246.904 185.903 257.743C168.476 268.581 146.907 274 121.193 274Z" fill="url(#paint5_linear_207_104)"/>
<path fill-rule="evenodd" clip-rule="evenodd" d="M257.327 5.47998V268.52H289.865V171.341H366.853L413.983 268.52H451.273L400.476 164.394C412.684 159.423 422.487 151.753 429.886 141.384C440.488 126.405 445.79 108.748 445.79 88.4106C445.79 74.4062 443.352 61.6804 438.478 50.2333C433.603 38.6644 426.291 29.1049 416.542 21.5546C406.915 14.0044 394.972 9.13332 380.714 6.94132C377.424 6.33243 374.012 5.96709 370.478 5.84531C366.944 5.60176 363.897 5.47998 361.338 5.47998H257.327ZM360.241 140.471H289.865V36.3507H360.241C362.557 36.3507 365.177 36.4724 368.102 36.716C371.148 36.8378 374.012 37.264 376.693 37.9946C385.101 39.8213 391.926 43.3529 397.166 48.5893C402.528 53.8258 406.428 59.9755 408.865 67.0386C411.302 73.98 412.521 81.104 412.521 88.4106C412.521 95.7173 411.302 102.902 408.865 109.965C406.428 116.907 402.528 122.996 397.166 128.232C391.926 133.347 385.101 136.878 376.693 138.827C374.012 139.436 371.148 139.862 368.102 140.105C365.177 140.349 362.557 140.471 360.241 140.471Z" fill="url(#paint6_linear_207_104)"/>
<path fill-rule="evenodd" clip-rule="evenodd" d="M1455.14 5.47998V268.52H1487.68V171.341H1564.66L1611.79 268.52H1649.08L1598.29 164.394C1610.49 159.423 1620.3 151.753 1627.7 141.384C1638.3 126.405 1643.6 108.748 1643.6 88.4106C1643.6 74.4062 1641.16 61.6804 1636.29 50.2333C1631.41 38.6644 1624.1 29.1049 1614.35 21.5546C1604.73 14.0044 1592.78 9.13332 1578.52 6.94132C1575.23 6.33243 1571.82 5.96709 1568.29 5.84531C1564.75 5.60176 1561.71 5.47998 1559.15 5.47998H1455.14ZM1568.65 171.341H1564.66L1559.88 161.477L1592.05 151.613L1598.29 164.394L1598.29 164.394C1593 166.546 1587.27 168.192 1581.08 169.332L1568.65 171.341ZM1558.05 140.471H1487.68V36.3507H1558.05C1560.37 36.3507 1562.99 36.4724 1565.91 36.716C1568.96 36.8378 1571.82 37.264 1574.5 37.9946C1582.91 39.8213 1589.74 43.3529 1594.98 48.5893C1600.34 53.8258 1604.24 59.9755 1606.67 67.0387C1609.11 73.98 1610.33 81.104 1610.33 88.4106C1610.33 95.7173 1609.11 102.902 1606.67 109.965C1604.24 116.907 1600.34 122.996 1594.98 128.232C1589.74 133.347 1582.91 136.878 1574.5 138.827C1571.82 139.436 1568.96 139.862 1565.91 140.105C1562.99 140.349 1560.37 140.471 1558.05 140.471Z" fill="url(#paint7_linear_207_104)"/>
<path d="M1568.65 171.341L1581.08 169.332C1587.27 168.192 1593 166.546 1598.29 164.394L1598.29 164.394L1592.05 151.613L1559.88 161.477L1564.66 171.341H1568.65Z" fill="url(#paint8_linear_207_104)"/>
</g>
<defs>
<linearGradient id="paint0_linear_207_104" x1="928.614" y1="274.5" x2="928.614" y2="-0.499984" gradientUnits="userSpaceOnUse">
<stop stop-color="#CFD2E7"/>
<stop offset="1" stop-color="white" stop-opacity="0"/>
</linearGradient>
<linearGradient id="paint1_linear_207_104" x1="928.614" y1="274.5" x2="928.614" y2="-0.499984" gradientUnits="userSpaceOnUse">
<stop stop-color="#CFD2E7"/>
<stop offset="1" stop-color="white" stop-opacity="0"/>
</linearGradient>
<linearGradient id="paint2_linear_207_104" x1="119.548" y1="0.182617" x2="119.548" y2="274" gradientUnits="userSpaceOnUse">
<stop stop-color="#CFD2E7"/>
<stop offset="1" stop-color="white" stop-opacity="0"/>
</linearGradient>
<linearGradient id="paint3_linear_207_104" x1="928.614" y1="274.5" x2="928.614" y2="-0.499984" gradientUnits="userSpaceOnUse">
<stop stop-color="#CFD2E7"/>
<stop offset="1" stop-color="white" stop-opacity="0"/>
</linearGradient>
<linearGradient id="paint4_linear_207_104" x1="119.548" y1="0.182617" x2="119.548" y2="274" gradientUnits="userSpaceOnUse">
<stop stop-color="#CFD2E7"/>
<stop offset="1" stop-color="white" stop-opacity="0"/>
</linearGradient>
<linearGradient id="paint5_linear_207_104" x1="119.548" y1="0.182617" x2="119.548" y2="274" gradientUnits="userSpaceOnUse">
<stop stop-color="#CFD2E7"/>
<stop offset="1" stop-color="white" stop-opacity="0"/>
</linearGradient>
<linearGradient id="paint6_linear_207_104" x1="928.614" y1="274.5" x2="928.614" y2="-0.499984" gradientUnits="userSpaceOnUse">
<stop stop-color="#CFD2E7"/>
<stop offset="1" stop-color="white" stop-opacity="0"/>
</linearGradient>
<linearGradient id="paint7_linear_207_104" x1="119.548" y1="0.182617" x2="119.548" y2="274" gradientUnits="userSpaceOnUse">
<stop stop-color="#CFD2E7"/>
<stop offset="1" stop-color="white" stop-opacity="0"/>
</linearGradient>
<linearGradient id="paint8_linear_207_104" x1="119.548" y1="0.182617" x2="119.548" y2="274" gradientUnits="userSpaceOnUse">
<stop stop-color="#CFD2E7"/>
<stop offset="1" stop-color="white" stop-opacity="0"/>
</linearGradient>
</defs>
</svg>
