<svg width="88" height="599" viewBox="0 0 88 599" fill="none" xmlns="http://www.w3.org/2000/svg">
<g opacity="0.2">
<path d="M4.38662e-05 567.321C4.41282e-05 561.326 1.01694 555.919 3.05072 551.1C5.08449 546.32 7.97871 542.362 11.7334 539.228C15.5272 536.132 20.0054 534.114 25.168 533.174L26.8694 543.988C21.5503 545.36 17.3849 548.2 14.3734 552.51C11.4009 556.86 9.91471 561.973 9.91471 567.85C9.91471 571.651 10.5014 575.079 11.6747 578.135C12.8872 581.231 14.608 583.68 16.8374 585.482C19.0667 587.285 21.7067 588.186 24.7574 588.186C26.6347 588.186 28.2383 587.853 29.568 587.187C30.9369 586.56 32.0907 585.678 33.0294 584.542C34.0072 583.445 34.8285 582.191 35.4934 580.78C36.1583 579.37 36.7058 577.9 37.136 576.372L43.5307 554.803C44.2347 552.452 45.1147 550.179 46.1707 547.985C47.2658 545.791 48.6152 543.832 50.2187 542.107C51.8614 540.383 53.8169 539.012 56.0854 537.993C58.3929 536.975 61.1112 536.465 64.24 536.465C69.2463 536.465 73.5094 537.758 77.0294 540.344C80.5885 542.969 83.3067 546.516 85.184 550.982C87.0614 555.449 87.9805 560.484 87.9414 566.087C87.9023 571.768 86.8854 576.842 84.8907 581.309C82.9352 585.815 80.1192 589.537 76.4427 592.476C72.7663 595.454 68.3663 597.452 63.2427 598.471L61.3067 587.363C64.7485 586.775 67.7014 585.463 70.1654 583.425C72.6685 581.427 74.5849 578.919 75.9147 575.902C77.2836 572.885 77.9876 569.574 78.0267 565.969C78.0658 562.521 77.5183 559.406 76.384 556.624C75.2498 553.843 73.6658 551.629 71.632 549.983C69.6374 548.337 67.3298 547.515 64.7094 547.515C62.128 547.515 60.0356 548.259 58.432 549.748C56.8676 551.237 55.616 553.059 54.6774 555.214C53.7778 557.408 53.0347 559.544 52.448 561.62L47.8134 577.724C47.3049 579.566 46.6009 581.681 45.7014 584.072C44.8018 586.501 43.5307 588.852 41.888 591.124C40.2845 593.397 38.1334 595.278 35.4347 596.767C32.7752 598.255 29.4116 599 25.344 599C21.2765 599 17.6587 598.177 14.4907 596.531C11.3227 594.925 8.66315 592.672 6.51204 589.773C4.40004 586.873 2.79648 583.503 1.70138 579.664C0.567152 575.824 4.36743e-05 571.71 4.38662e-05 567.321Z" fill="url(#paint0_linear_340_89)"/>
<path d="M1.75998 406.127L86.24 406.127L86.24 459.611L76.3253 459.611L76.3253 416.589L49.8667 416.589L49.8667 452.558L39.952 452.558L39.952 416.589L11.6747 416.589L11.6747 459.611L1.75997 459.611L1.75998 406.127Z" fill="url(#paint1_linear_340_89)"/>
<path d="M1.75998 312.595L86.24 312.595L86.24 322.117L18.9493 354.089L86.24 385.886L86.24 395.524L1.81865 395.524L1.81865 385.592L63.3013 385.592L1.75998 356.852L1.75998 351.268L63.3013 322.528L1.75998 322.528L1.75998 312.595Z" fill="url(#paint2_linear_340_89)"/>
<path d="M-1.16785e-05 267.173C-1.13103e-05 258.749 1.85776 251.598 5.57332 245.721C9.28888 239.843 14.4516 235.357 21.0613 232.262C27.6711 229.205 35.3173 227.677 44 227.677C52.6827 227.677 60.3289 229.205 66.9387 232.262C73.5484 235.357 78.7111 239.843 82.4267 245.721C86.1422 251.598 88 258.749 88 267.173C88 275.636 86.1422 282.807 82.4267 288.684C78.7111 294.561 73.5484 299.028 66.9387 302.084C60.3289 305.14 52.6827 306.668 44 306.668C35.3173 306.668 27.6711 305.14 21.0613 302.084C14.4515 299.028 9.28887 294.561 5.57332 288.684C1.85776 282.807 -1.20484e-05 275.636 -1.16785e-05 267.173ZM9.97332 267.173C9.93422 273.481 11.3422 278.732 14.1973 282.924C17.0915 287.156 21.1004 290.31 26.224 292.387C31.3475 294.502 37.2729 295.56 44 295.56C50.7662 295.56 56.6915 294.502 61.776 292.387C66.8604 290.31 70.8302 287.156 73.6853 282.924C76.5404 278.732 77.9875 273.481 78.0267 267.173C78.0658 260.865 76.6578 255.614 73.8027 251.422C70.9475 247.268 66.9582 244.134 61.8347 242.018C56.7111 239.902 50.7662 238.825 44 238.785C37.2729 238.746 31.3671 239.785 26.2827 241.9C21.1982 244.016 17.2089 247.17 14.3147 251.363C11.4595 255.595 10.0124 260.865 9.97332 267.173Z" fill="url(#paint3_linear_340_89)"/>
<path d="M-8.17213e-06 186.957C-7.8039e-06 178.532 1.85777 171.382 5.57333 165.504C9.28888 159.627 14.4516 155.141 21.0613 152.045C27.6711 148.989 35.3173 147.461 44 147.461C52.6827 147.461 60.3289 148.989 66.9387 152.045C73.5484 155.141 78.7111 159.627 82.4267 165.504C86.1422 171.382 88 178.532 88 186.957C88 195.42 86.1422 202.59 82.4267 208.468C78.7111 214.345 73.5484 218.812 66.9387 221.868C60.3289 224.924 52.6827 226.452 44 226.452C35.3173 226.452 27.6711 224.924 21.0613 221.868C14.4516 218.812 9.28888 214.345 5.57332 208.468C1.85776 202.59 -8.54208e-06 195.42 -8.17213e-06 186.957ZM9.97333 186.957C9.93422 193.265 11.3422 198.515 14.1973 202.708C17.0915 206.94 21.1004 210.094 26.224 212.17C31.3475 214.286 37.2729 215.344 44 215.344C50.7662 215.344 56.6915 214.286 61.776 212.17C66.8604 210.094 70.8302 206.94 73.6853 202.708C76.5404 198.515 77.9875 193.265 78.0267 186.957C78.0658 180.648 76.6578 175.398 73.8027 171.205C70.9476 167.052 66.9582 163.918 61.8347 161.802C56.7111 159.686 50.7662 158.608 44 158.569C37.2729 158.53 31.3671 159.568 26.2827 161.684C21.1982 163.8 17.2089 166.954 14.3147 171.147C11.4595 175.378 10.0124 180.648 9.97333 186.957Z" fill="url(#paint4_linear_340_89)"/>
<path d="M5.92611e-06 38.9666C6.17959e-06 33.1677 1.01691 27.8781 3.05068 23.0979C5.08446 18.3176 7.99823 14.2035 11.792 10.7555C15.6249 7.30746 20.24 4.64308 25.6373 2.76234C31.0738 0.920778 37.1947 -2.22077e-06 44 -1.9233e-06C52.9956 -1.53009e-06 60.7787 1.60647 67.3493 4.8194C73.92 8.03234 78.9849 12.5579 82.544 18.396C86.1422 24.2341 87.9413 31.091 87.9413 38.9666C87.9413 48.4487 85.7316 56.0892 81.312 61.8882C76.9316 67.6871 70.928 71.6837 63.3013 73.8779L61.1307 63.2987C66.2542 61.5355 70.3413 58.6361 73.392 54.6003C76.4427 50.5645 77.968 45.5296 77.968 39.4956C78.0071 33.1873 76.5991 27.9369 73.744 23.7444C70.928 19.5911 66.9582 16.4565 61.8347 14.3407C56.7111 12.2248 50.7662 11.1473 44 11.1081C37.2729 11.069 31.3671 12.1073 26.2827 14.2231C21.1982 16.3389 17.2089 19.4931 14.3147 23.6856C11.4596 27.9173 10.0125 33.1873 9.97334 39.4956C9.93423 44.9419 10.9707 49.5262 13.0827 53.2485C15.1947 56.9708 18.2453 59.8507 22.2347 61.8882C26.224 63.9257 31.0151 65.1599 36.608 65.5909L36.608 47.6063L45.232 47.6063L45.232 76.6403C44.4498 76.7578 43.5111 76.8166 42.416 76.8166C41.36 76.8558 40.6365 76.8753 40.2453 76.8753C32.5405 76.8753 25.6373 75.4256 19.536 72.5261C13.4738 69.6658 8.70224 65.4146 5.22135 59.7723C1.74046 54.1693 5.56473e-06 47.2341 5.92611e-06 38.9666Z" fill="url(#paint5_linear_340_89)"/>
<path fill-rule="evenodd" clip-rule="evenodd" d="M86.24 82.7371L1.75999 82.7371L1.75999 93.1987L32.9707 93.1987L32.9707 117.952L1.75999 133.106L1.75999 145.095L35.202 128.763C36.7985 132.688 39.2619 135.84 42.592 138.219C47.4027 141.628 53.0738 143.332 59.6053 143.332C64.1031 143.332 68.1902 142.549 71.8667 140.981C75.5822 139.414 78.6524 137.063 81.0773 133.929C83.5022 130.833 85.0667 126.993 85.7707 122.409C85.9662 121.351 86.0836 120.254 86.1227 119.118C86.2009 117.981 86.24 117.002 86.24 116.179L86.24 82.7371ZM42.8853 115.826L42.8853 93.1987L76.3253 93.1987L76.3253 115.826C76.3253 116.571 76.2862 117.413 76.208 118.354C76.1689 119.333 76.032 120.254 75.7973 121.116C75.2107 123.82 74.0764 126.014 72.3947 127.699C70.7129 129.423 68.7378 130.676 66.4693 131.46C64.24 132.244 61.952 132.636 59.6053 132.636C57.2587 132.636 54.9511 132.244 52.6827 131.46C50.4533 130.676 48.4978 129.423 46.816 127.699C45.1733 126.014 44.0391 123.82 43.4133 121.116C43.2178 120.254 43.0809 119.333 43.0027 118.354C42.9244 117.413 42.8853 116.571 42.8853 115.826Z" fill="url(#paint6_linear_340_89)"/>
<path fill-rule="evenodd" clip-rule="evenodd" d="M86.24 467.862L1.75997 467.862L1.75997 478.324L32.9706 478.324L32.9706 503.077L1.75997 518.231L1.75997 530.221L35.202 513.888C36.7985 517.813 39.2618 520.965 42.592 523.344C47.4026 526.753 53.0738 528.457 59.6053 528.457C64.1031 528.457 68.1902 527.674 71.8666 526.107C75.5822 524.539 78.6524 522.188 81.0773 519.054C83.5022 515.958 85.0666 512.118 85.7706 507.534C85.9662 506.476 86.0835 505.379 86.1227 504.243C86.2009 503.107 86.24 502.127 86.24 501.304L86.24 467.862ZM32.9706 504.36L32.9706 503.077L36.1386 501.539L39.3067 511.883L35.202 513.888L35.2018 513.888C34.5108 512.189 33.9822 510.345 33.616 508.357L32.9706 504.36ZM42.8853 500.952L42.8853 478.324L76.3253 478.324L76.3253 500.952C76.3253 501.696 76.2862 502.538 76.208 503.479C76.1689 504.458 76.032 505.379 75.7973 506.241C75.2107 508.945 74.0764 511.139 72.3947 512.824C70.7129 514.548 68.7378 515.802 66.4693 516.585C64.24 517.369 61.952 517.761 59.6053 517.761C57.2587 517.761 54.9511 517.369 52.6827 516.585C50.4533 515.802 48.4978 514.548 46.816 512.824C45.1733 511.139 44.0391 508.945 43.4133 506.241C43.2178 505.379 43.0809 504.458 43.0026 503.479C42.9244 502.538 42.8853 501.696 42.8853 500.952Z" fill="url(#paint7_linear_340_89)"/>
<path d="M32.9706 504.36L33.616 508.357C33.9822 510.345 34.5108 512.189 35.2018 513.888L35.202 513.888L39.3067 511.883L36.1386 501.539L32.9706 503.077L32.9706 504.36Z" fill="url(#paint8_linear_340_89)"/>
</g>
<defs>
<linearGradient id="paint0_linear_340_89" x1="-0.160591" y1="298.572" x2="88.1606" y2="298.572" gradientUnits="userSpaceOnUse">
<stop stop-color="#CFD2E7"/>
<stop offset="1" stop-color="white" stop-opacity="0"/>
</linearGradient>
<linearGradient id="paint1_linear_340_89" x1="-0.160591" y1="298.572" x2="88.1606" y2="298.572" gradientUnits="userSpaceOnUse">
<stop stop-color="#CFD2E7"/>
<stop offset="1" stop-color="white" stop-opacity="0"/>
</linearGradient>
<linearGradient id="paint2_linear_340_89" x1="87.9413" y1="38.4377" x2="1.27909e-05" y2="38.4377" gradientUnits="userSpaceOnUse">
<stop stop-color="#CFD2E7"/>
<stop offset="1" stop-color="white" stop-opacity="0"/>
</linearGradient>
<linearGradient id="paint3_linear_340_89" x1="-0.160591" y1="298.572" x2="88.1606" y2="298.572" gradientUnits="userSpaceOnUse">
<stop stop-color="#CFD2E7"/>
<stop offset="1" stop-color="white" stop-opacity="0"/>
</linearGradient>
<linearGradient id="paint4_linear_340_89" x1="87.9413" y1="38.4377" x2="1.27909e-05" y2="38.4377" gradientUnits="userSpaceOnUse">
<stop stop-color="#CFD2E7"/>
<stop offset="1" stop-color="white" stop-opacity="0"/>
</linearGradient>
<linearGradient id="paint5_linear_340_89" x1="87.9413" y1="38.4377" x2="1.27909e-05" y2="38.4377" gradientUnits="userSpaceOnUse">
<stop stop-color="#CFD2E7"/>
<stop offset="1" stop-color="white" stop-opacity="0"/>
</linearGradient>
<linearGradient id="paint6_linear_340_89" x1="-0.160591" y1="298.572" x2="88.1606" y2="298.572" gradientUnits="userSpaceOnUse">
<stop stop-color="#CFD2E7"/>
<stop offset="1" stop-color="white" stop-opacity="0"/>
</linearGradient>
<linearGradient id="paint7_linear_340_89" x1="87.9413" y1="38.4377" x2="1.27909e-05" y2="38.4377" gradientUnits="userSpaceOnUse">
<stop stop-color="#CFD2E7"/>
<stop offset="1" stop-color="white" stop-opacity="0"/>
</linearGradient>
<linearGradient id="paint8_linear_340_89" x1="87.9413" y1="38.4377" x2="1.27909e-05" y2="38.4377" gradientUnits="userSpaceOnUse">
<stop stop-color="#CFD2E7"/>
<stop offset="1" stop-color="white" stop-opacity="0"/>
</linearGradient>
</defs>
</svg>
