<svg width="206" height="49" viewBox="0 0 206 49" fill="none" xmlns="http://www.w3.org/2000/svg">
<g id="Group 33617" opacity="0.2">
<path id="Exclude" fill-rule="evenodd" clip-rule="evenodd" d="M1.42925 1.42925C0 2.8585 0 5.15884 0 9.75952V39.0381C0 43.6388 0 45.9391 1.42925 47.3684C2.8585 48.7976 5.15884 48.7976 9.75952 48.7976L22.1807 48.7976V33.7062L8.87226 26.0226L11.0903 22.1807L22.1011 28.5378V15.5265H26.5372L26.5372 28.5378L37.548 22.1807L39.766 26.0226L26.6169 33.6142V48.7976L39.0381 48.7976C43.6388 48.7976 45.9391 48.7976 47.3684 47.3684C48.7976 45.9391 48.7976 43.6388 48.7976 39.0381V9.75952C48.7976 5.15884 48.7976 2.8585 47.3684 1.42925C45.9391 0 43.6388 0 39.0381 0H9.75952C5.15884 0 2.8585 0 1.42925 1.42925Z" fill="white"/>
<g id="&#208;&#160;&#208;&#176;&#208;&#183;&#209;&#128;&#208;&#176;&#208;&#177;&#208;&#190;&#209;&#130;&#208;&#176;&#208;&#189;&#208;&#190; &#208;&#161;&#209;&#130;&#209;&#131;&#208;&#180;&#208;&#184;&#208;&#181;&#208;&#185; &#208;&#161;&#208;&#176;&#208;&#185;&#209;&#130;&#208;&#190;&#208;&#178;">
<path d="M64.0672 14.3291V19.394H62.0652V5.88086H68.0311C69.299 5.88086 70.36 6.28792 71.2142 7.10205C72.0683 7.90283 72.4954 8.90381 72.4954 10.105C72.4954 11.3062 72.0683 12.3138 71.2142 13.1279C70.36 13.9287 69.299 14.3291 68.0311 14.3291H64.0672ZM68.0311 7.74268H64.0672V12.4873H68.0311C68.7117 12.4873 69.279 12.2604 69.7327 11.8066C70.1999 11.3529 70.4334 10.7856 70.4334 10.105C70.4334 9.42432 70.1999 8.86377 69.7327 8.42334C69.279 7.96956 68.7117 7.74268 68.0311 7.74268Z" fill="white"/>
<path d="M77.5396 10.145C78.7007 10.145 79.695 10.5387 80.5225 11.3262V10.3853H82.3242V19.394H80.5225V18.4531C79.695 19.2406 78.7007 19.6343 77.5396 19.6343C76.2984 19.6343 75.244 19.1805 74.3765 18.273C73.5357 17.3787 73.1152 16.251 73.1152 14.8896C73.1152 13.5417 73.5357 12.4139 74.3765 11.5063C75.244 10.5988 76.2984 10.145 77.5396 10.145ZM79.6817 12.8076C79.1611 12.2471 78.5138 11.9668 77.7398 11.9668C76.979 11.9668 76.325 12.2471 75.7778 12.8076C75.2573 13.3682 74.9971 14.0622 74.9971 14.8896C74.9971 15.7171 75.2573 16.4111 75.7778 16.9717C76.325 17.5322 76.979 17.8125 77.7398 17.8125C78.5138 17.8125 79.1611 17.5322 79.6817 16.9717C80.2155 16.4245 80.4824 15.7305 80.4824 14.8896C80.4824 14.0488 80.2155 13.3548 79.6817 12.8076Z" fill="white"/>
<path d="M84.021 17.0317L85.8428 16.5513C86.1631 17.4455 86.8905 17.8926 88.0249 17.8926C88.6656 17.8926 89.1928 17.7591 89.6065 17.4922C90.0202 17.2253 90.2271 16.8983 90.2271 16.5112C90.2271 16.231 90.1203 15.9974 89.9068 15.8105C89.6932 15.6237 89.4263 15.5303 89.106 15.5303H86.9039V14.0088H89.0059C89.2995 14.0088 89.5464 13.922 89.7466 13.7485C89.9468 13.575 90.0469 13.3682 90.0469 13.1279C90.0469 12.7809 89.8601 12.4873 89.4864 12.2471C89.1127 12.0068 88.6389 11.8867 88.065 11.8867C86.9439 11.8867 86.2165 12.3338 85.8829 13.228L84.0611 12.7676C84.328 11.9535 84.8285 11.3128 85.5625 10.8457C86.2966 10.3786 87.1574 10.145 88.1451 10.145C89.2261 10.145 90.127 10.4053 90.8477 10.9258C91.5684 11.4463 91.9288 12.1003 91.9288 12.8877C91.9288 13.6484 91.5884 14.2624 90.9078 14.7295C91.6952 15.21 92.0889 15.884 92.0889 16.7515C92.0889 17.5789 91.7085 18.2663 90.9478 18.8135C90.1737 19.3607 89.2128 19.6343 88.065 19.6343C87.064 19.6343 86.2032 19.4074 85.4825 18.9536C84.7618 18.4865 84.2746 17.8459 84.021 17.0317Z" fill="white"/>
<path d="M95.6693 23.8984H93.8675V10.3853H95.6693V11.3262C96.4968 10.5387 97.4911 10.145 98.6522 10.145C99.9067 10.145 100.954 10.5988 101.795 11.5063C102.649 12.4006 103.077 13.5283 103.077 14.8896C103.077 16.251 102.649 17.3787 101.795 18.273C100.954 19.1805 99.9067 19.6343 98.6522 19.6343C97.4911 19.6343 96.4968 19.2406 95.6693 18.4531V23.8984ZM100.394 12.8076C99.8734 12.2471 99.2261 11.9668 98.452 11.9668C97.6913 11.9668 97.0373 12.2471 96.4901 12.8076C95.9696 13.3682 95.7093 14.0622 95.7093 14.8896C95.7093 15.7171 95.9696 16.4111 96.4901 16.9717C97.0373 17.5322 97.6913 17.8125 98.452 17.8125C99.2261 17.8125 99.8734 17.5322 100.394 16.9717C100.928 16.4245 101.195 15.7305 101.195 14.8896C101.195 14.0488 100.928 13.3548 100.394 12.8076Z" fill="white"/>
<path d="M108.937 10.145C110.099 10.145 111.093 10.5387 111.92 11.3262V10.3853H113.722V19.394H111.92V18.4531C111.093 19.2406 110.099 19.6343 108.937 19.6343C107.696 19.6343 106.642 19.1805 105.774 18.273C104.933 17.3787 104.513 16.251 104.513 14.8896C104.513 13.5417 104.933 12.4139 105.774 11.5063C106.642 10.5988 107.696 10.145 108.937 10.145ZM111.079 12.8076C110.559 12.2471 109.912 11.9668 109.138 11.9668C108.377 11.9668 107.723 12.2471 107.176 12.8076C106.655 13.3682 106.395 14.0622 106.395 14.8896C106.395 15.7171 106.655 16.4111 107.176 16.9717C107.723 17.5322 108.377 17.8125 109.138 17.8125C109.912 17.8125 110.559 17.5322 111.079 16.9717C111.613 16.4245 111.88 15.7305 111.88 14.8896C111.88 14.0488 111.613 13.3548 111.079 12.8076Z" fill="white"/>
<path d="M115.619 12.6475C115.619 10.5921 116.039 9.02393 116.88 7.94287C117.734 6.86182 119.016 6.20785 120.724 5.98096C122.286 5.76742 123.213 5.35368 123.507 4.73975L124.348 5.80078C124.201 6.2679 123.814 6.67497 123.186 7.02197C122.559 7.36898 121.878 7.60921 121.144 7.74268C119.89 7.91618 118.962 8.36996 118.362 9.104C117.774 9.82471 117.468 10.839 117.441 12.147C117.761 11.533 118.208 11.0459 118.782 10.6855C119.369 10.3252 120.037 10.145 120.784 10.145C122.079 10.145 123.166 10.6055 124.047 11.5264C124.941 12.4339 125.389 13.5617 125.389 14.9097C125.389 16.271 124.941 17.3988 124.047 18.293C123.166 19.1872 122.059 19.6343 120.724 19.6343C119.256 19.6343 118.035 19.047 117.06 17.8726C116.1 16.6981 115.619 14.9564 115.619 12.6475ZM118.762 12.8076C118.242 13.3682 117.981 14.0622 117.981 14.8896C117.981 15.7171 118.242 16.4111 118.762 16.9717C119.296 17.5322 119.957 17.8125 120.744 17.8125C121.531 17.8125 122.185 17.5322 122.706 16.9717C123.24 16.4245 123.507 15.7305 123.507 14.8896C123.507 14.0488 123.24 13.3548 122.706 12.8076C122.185 12.2471 121.531 11.9668 120.744 11.9668C119.957 11.9668 119.296 12.2471 118.762 12.8076Z" fill="white"/>
<path d="M128.181 18.273C127.287 17.3787 126.84 16.251 126.84 14.8896C126.84 13.5283 127.287 12.4006 128.181 11.5063C129.088 10.5988 130.216 10.145 131.564 10.145C132.912 10.145 134.04 10.5988 134.947 11.5063C135.855 12.4139 136.309 13.5417 136.309 14.8896C136.309 16.2376 135.855 17.3654 134.947 18.273C134.04 19.1805 132.912 19.6343 131.564 19.6343C130.216 19.6343 129.088 19.1805 128.181 18.273ZM129.522 12.8076C128.988 13.3548 128.721 14.0488 128.721 14.8896C128.721 15.7305 128.988 16.4245 129.522 16.9717C130.056 17.5322 130.737 17.8125 131.564 17.8125C132.365 17.8125 133.039 17.5322 133.586 16.9717C134.133 16.3978 134.407 15.7038 134.407 14.8896C134.407 14.0755 134.133 13.3815 133.586 12.8076C133.039 12.2471 132.365 11.9668 131.564 11.9668C130.737 11.9668 130.056 12.2471 129.522 12.8076Z" fill="white"/>
<path d="M140.178 19.394V12.127H137.014V10.3853H145.162V12.127H141.999V19.394H140.178Z" fill="white"/>
<path d="M150.247 10.145C151.408 10.145 152.403 10.5387 153.23 11.3262V10.3853H155.032V19.394H153.23V18.4531C152.403 19.2406 151.408 19.6343 150.247 19.6343C149.006 19.6343 147.952 19.1805 147.084 18.273C146.243 17.3787 145.823 16.251 145.823 14.8896C145.823 13.5417 146.243 12.4139 147.084 11.5063C147.952 10.5988 149.006 10.145 150.247 10.145ZM152.389 12.8076C151.869 12.2471 151.222 11.9668 150.447 11.9668C149.687 11.9668 149.033 12.2471 148.485 12.8076C147.965 13.3682 147.705 14.0622 147.705 14.8896C147.705 15.7171 147.965 16.4111 148.485 16.9717C149.033 17.5322 149.687 17.8125 150.447 17.8125C151.222 17.8125 151.869 17.5322 152.389 16.9717C152.923 16.4245 153.19 15.7305 153.19 14.8896C153.19 14.0488 152.923 13.3548 152.389 12.8076Z" fill="white"/>
<path d="M159.071 15.6704V19.394H157.269V10.3853H159.071V13.9487H163.836V10.3853H165.657V19.394H163.836V15.6704H159.071Z" fill="white"/>
<path d="M168.846 18.273C167.951 17.3787 167.504 16.251 167.504 14.8896C167.504 13.5283 167.951 12.4006 168.846 11.5063C169.753 10.5988 170.881 10.145 172.229 10.145C173.577 10.145 174.705 10.5988 175.612 11.5063C176.52 12.4139 176.973 13.5417 176.973 14.8896C176.973 16.2376 176.52 17.3654 175.612 18.273C174.705 19.1805 173.577 19.6343 172.229 19.6343C170.881 19.6343 169.753 19.1805 168.846 18.273ZM170.187 12.8076C169.653 13.3548 169.386 14.0488 169.386 14.8896C169.386 15.7305 169.653 16.4245 170.187 16.9717C170.721 17.5322 171.401 17.8125 172.229 17.8125C173.03 17.8125 173.704 17.5322 174.251 16.9717C174.798 16.3978 175.072 15.7038 175.072 14.8896C175.072 14.0755 174.798 13.3815 174.251 12.8076C173.704 12.2471 173.03 11.9668 172.229 11.9668C171.401 11.9668 170.721 12.2471 170.187 12.8076Z" fill="white"/>
<path d="M61.6048 32.667C61.6048 30.665 62.2721 28.9967 63.6068 27.6621C64.9414 26.3275 66.603 25.6602 68.5916 25.6602C69.9396 25.6602 71.1608 25.9805 72.2552 26.6211C73.3496 27.2617 74.1837 28.1426 74.7576 29.2637L72.8358 30.0044C72.3953 29.2437 71.8014 28.6497 71.054 28.2227C70.32 27.7956 69.4992 27.582 68.5916 27.582C67.1769 27.582 66.0024 28.0692 65.0682 29.0435C64.1339 29.991 63.6668 31.1989 63.6668 32.667C63.6668 34.1084 64.1339 35.3162 65.0682 36.2905C66.0158 37.2515 67.1902 37.7319 68.5916 37.7319C69.4992 37.7319 70.32 37.5184 71.054 37.0913C71.8014 36.6642 72.3953 36.0703 72.8358 35.3096L74.7576 36.0503C74.1837 37.1714 73.3496 38.0522 72.2552 38.6929C71.1608 39.3335 69.9396 39.6538 68.5916 39.6538C66.603 39.6538 64.9414 38.9865 63.6068 37.6519C62.2721 36.3172 61.6048 34.6556 61.6048 32.667Z" fill="white"/>
<path d="M78.6722 39.4136V32.1465H75.5091V30.4048H83.6571V32.1465H80.494V39.4136H78.6722Z" fill="white"/>
<path d="M87.1328 40.4746L87.6533 39.1733L84.1299 30.4048H86.0117L88.5742 36.9312L91.1968 30.4048H93.0786L88.6944 41.0952C88.294 42.0695 87.7935 42.7835 87.1929 43.2373C86.5923 43.6911 85.8449 43.918 84.9507 43.918H84.6304V42.1763H84.9507C85.9517 42.1763 86.6791 41.6091 87.1328 40.4746Z" fill="white"/>
<path d="M94.6935 39.4136V42.1763H92.8717V37.6719H94.2531C94.7068 37.2048 94.9337 36.2038 94.9337 34.6689V30.4048H102.221V37.6719H103.862V42.1763H102.041V39.4136H94.6935ZM96.195 37.6719H100.419V32.1465H96.7355V34.769C96.7355 35.9435 96.5553 36.9111 96.195 37.6719Z" fill="white"/>
<path d="M111.91 33.4678L106.825 39.4136H105.324V30.4048H107.126V36.4106L112.211 30.4048H113.732V39.4136H111.91V33.4678Z" fill="white"/>
<path d="M124.868 35.5698H117.421C117.568 36.2638 117.908 36.8377 118.442 37.2915C118.989 37.7319 119.636 37.9521 120.384 37.9521C121.385 37.9521 122.179 37.5785 122.766 36.8311L124.528 37.3716C124.127 38.0656 123.553 38.6195 122.806 39.0332C122.072 39.4469 121.265 39.6538 120.384 39.6538C119.022 39.6538 117.875 39.2 116.94 38.2925C116.019 37.3849 115.559 36.2572 115.559 34.9092C115.559 33.5479 116.006 32.4201 116.9 31.5259C117.808 30.6183 118.922 30.1646 120.244 30.1646C121.552 30.1646 122.659 30.6183 123.567 31.5259C124.461 32.4201 124.908 33.5479 124.908 34.9092C124.908 35.1628 124.895 35.383 124.868 35.5698ZM117.441 34.1284H123.046C122.886 33.4478 122.546 32.9006 122.025 32.4868C121.505 32.0731 120.898 31.8662 120.204 31.8662C119.536 31.8662 118.942 32.0798 118.422 32.5068C117.915 32.9206 117.588 33.4611 117.441 34.1284Z" fill="white"/>
<path d="M126.614 39.4136V30.4048H128.416V36.4106L133.501 30.4048H135.023V39.4136H133.201V33.4678L128.116 39.4136H126.614ZM127.735 25.8203H129.317C129.317 26.234 129.457 26.5811 129.737 26.8613C130.031 27.1283 130.391 27.2617 130.818 27.2617C131.245 27.2617 131.599 27.1283 131.879 26.8613C132.16 26.5811 132.3 26.234 132.3 25.8203H133.881C133.881 26.6344 133.588 27.3351 133.001 27.9224C132.427 28.4963 131.699 28.7832 130.818 28.7832C129.924 28.7832 129.19 28.4963 128.616 27.9224C128.029 27.3351 127.735 26.6344 127.735 25.8203Z" fill="white"/>
<path d="M142.172 32.667C142.172 30.665 142.839 28.9967 144.174 27.6621C145.508 26.3275 147.17 25.6602 149.158 25.6602C150.506 25.6602 151.728 25.9805 152.822 26.6211C153.916 27.2617 154.751 28.1426 155.325 29.2637L153.403 30.0044C152.962 29.2437 152.368 28.6497 151.621 28.2227C150.887 27.7956 150.066 27.582 149.158 27.582C147.744 27.582 146.569 28.0692 145.635 29.0435C144.701 29.991 144.234 31.1989 144.234 32.667C144.234 34.1084 144.701 35.3162 145.635 36.2905C146.583 37.2515 147.757 37.7319 149.158 37.7319C150.066 37.7319 150.887 37.5184 151.621 37.0913C152.368 36.6642 152.962 36.0703 153.403 35.3096L155.325 36.0503C154.751 37.1714 153.916 38.0522 152.822 38.6929C151.728 39.3335 150.506 39.6538 149.158 39.6538C147.17 39.6538 145.508 38.9865 144.174 37.6519C142.839 36.3172 142.172 34.6556 142.172 32.667Z" fill="white"/>
<path d="M161.117 30.1646C162.278 30.1646 163.273 30.5583 164.1 31.3457V30.4048H165.902V39.4136H164.1V38.4727C163.273 39.2601 162.278 39.6538 161.117 39.6538C159.876 39.6538 158.822 39.2 157.954 38.2925C157.113 37.3983 156.693 36.2705 156.693 34.9092C156.693 33.5612 157.113 32.4334 157.954 31.5259C158.822 30.6183 159.876 30.1646 161.117 30.1646ZM163.259 32.8271C162.739 32.2666 162.091 31.9863 161.317 31.9863C160.557 31.9863 159.903 32.2666 159.355 32.8271C158.835 33.3877 158.575 34.0817 158.575 34.9092C158.575 35.7367 158.835 36.4307 159.355 36.9912C159.903 37.5518 160.557 37.832 161.317 37.832C162.091 37.832 162.739 37.5518 163.259 36.9912C163.793 36.444 164.06 35.75 164.06 34.9092C164.06 34.0684 163.793 33.3743 163.259 32.8271Z" fill="white"/>
<path d="M168.139 39.4136V30.4048H169.941V36.4106L175.026 30.4048H176.547V39.4136H174.726V33.4678L169.641 39.4136H168.139ZM169.26 25.8203H170.842C170.842 26.234 170.982 26.5811 171.262 26.8613C171.556 27.1283 171.916 27.2617 172.343 27.2617C172.77 27.2617 173.124 27.1283 173.404 26.8613C173.685 26.5811 173.825 26.234 173.825 25.8203H175.406C175.406 26.6344 175.113 27.3351 174.525 27.9224C173.952 28.4963 173.224 28.7832 172.343 28.7832C171.449 28.7832 170.715 28.4963 170.141 27.9224C169.554 27.3351 169.26 26.6344 169.26 25.8203Z" fill="white"/>
<path d="M181.077 39.4136V32.1465H177.914V30.4048H186.062V32.1465H182.899V39.4136H181.077Z" fill="white"/>
<path d="M188.063 38.2925C187.169 37.3983 186.722 36.2705 186.722 34.9092C186.722 33.5479 187.169 32.4201 188.063 31.5259C188.971 30.6183 190.099 30.1646 191.447 30.1646C192.795 30.1646 193.923 30.6183 194.83 31.5259C195.738 32.4334 196.191 33.5612 196.191 34.9092C196.191 36.2572 195.738 37.3849 194.83 38.2925C193.923 39.2 192.795 39.6538 191.447 39.6538C190.099 39.6538 188.971 39.2 188.063 38.2925ZM189.405 32.8271C188.871 33.3743 188.604 34.0684 188.604 34.9092C188.604 35.75 188.871 36.444 189.405 36.9912C189.939 37.5518 190.619 37.832 191.447 37.832C192.248 37.832 192.922 37.5518 193.469 36.9912C194.016 36.4173 194.29 35.7233 194.29 34.9092C194.29 34.0951 194.016 33.401 193.469 32.8271C192.922 32.2666 192.248 31.9863 191.447 31.9863C190.619 31.9863 189.939 32.2666 189.405 32.8271Z" fill="white"/>
<path d="M198.012 30.4048H202.757C203.491 30.4048 204.125 30.6117 204.659 31.0254C205.206 31.4391 205.513 31.9797 205.579 32.647C205.579 33.4744 205.299 34.1351 204.739 34.6289C205.579 35.1094 206 35.8034 206 36.7109C206 37.4984 205.726 38.1457 205.179 38.6528C204.632 39.16 203.938 39.4136 203.097 39.4136H198.012V30.4048ZM199.814 35.5098V37.6719H203.097C203.391 37.6719 203.631 37.5718 203.818 37.3716C204.018 37.158 204.118 36.8978 204.118 36.5908C204.118 36.2839 204.018 36.0303 203.818 35.8301C203.631 35.6165 203.391 35.5098 203.097 35.5098H199.814ZM202.757 32.1465H199.814V33.9883H202.757C203.024 33.9883 203.244 33.9015 203.417 33.728C203.604 33.5545 203.698 33.3343 203.698 33.0674C203.698 32.8005 203.604 32.5802 203.417 32.4067C203.244 32.2332 203.024 32.1465 202.757 32.1465Z" fill="white"/>
</g>
</g>
</svg>
